<?xml version="1.0" encoding="utf-8"?>
<!-- Uploaded to: SVG Repo, www.svgrepo.com, Generator: SVG Repo Mixer Tools -->
<svg fill="#000000" width="800px" height="800px" viewBox="-6 0 32 32" version="1.1" xmlns="http://www.w3.org/2000/svg">
<title>ampersand</title>
<path d="M18.625 18.719l-1.531-1.625c-0.719 0.625-1.656 1.375-2.906 2.281l-2.281-2.281-3.5-3.688c1.594-1.344 2.688-2.469 3.219-3.344s0.813-1.656 0.813-2.438c0-0.75-0.219-1.406-0.625-2.094-0.406-0.625-1.031-1.156-1.844-1.531-0.781-0.375-1.625-0.594-2.594-0.594-1.5 0-2.781 0.406-3.813 1.313-0.875 0.75-1.313 1.688-1.313 2.844 0 0.625 0.156 1.344 0.531 2.063 0.344 0.75 1.156 1.875 2.406 3.375-2.219 1.75-3.656 3.219-4.406 4.375-0.719 1.156-1.094 2.281-1.094 3.438 0 1.5 0.531 2.781 1.625 3.813 1.063 1 2.469 1.5 4.25 1.5 1.313 0 2.594-0.219 3.781-0.688 1.219-0.438 2.813-1.469 4.688-3l3.063 3.125h3.188c-0.563-0.688-1.219-1.406-2.031-2.188-1.031-1.031-1.844-1.781-2.469-2.344 0.906-0.625 1.844-1.406 2.844-2.313zM7 11.719c-0.969-1.063-1.656-2.063-2.156-2.938-0.219-0.375-0.344-0.75-0.344-1.156 0-0.531 0.281-1.031 0.781-1.438 0.5-0.375 1.156-0.563 1.969-0.563 0.875 0 1.594 0.188 2.094 0.563s0.781 0.844 0.781 1.375c0 0.438-0.219 1-0.625 1.594-0.531 0.844-1.406 1.688-2.5 2.563zM8.813 17.063l3.625 3.719c-1.594 1.25-3 2.188-4.25 2.688-0.781 0.344-1.563 0.531-2.406 0.531-1.063 0-1.969-0.344-2.719-1.031s-1.094-1.438-1.094-2.313c0-0.75 0.313-1.563 0.906-2.438s1.906-2 3.844-3.469c0.781 0.875 1.5 1.625 2.094 2.313z"></path>
</svg>